name D:\school\WTK\thesis\model\3dpredictsim\Results\MidTarsalJoint\Fal_s1_bCst_PF_Natali2010_ls150_MT_k300_MTP_Mu1_spx2_ig24.mot
datacolumns 128
datarows 4
range 1.68344813 1.71711709
endheader
time	pelvis_tilt	pelvis_list	pelvis_rotation	pelvis_tx	pelvis_ty	pelvis_tz	hip_flexion_l	hip_adduction_l	hip_rotation_l	hip_flexion_r	hip_adduction_r	hip_rotation_r	knee_angle_l	knee_angle_r	ankle_angle_l	ankle_angle_r	subtalar_angle_l	subtalar_angle_r	tmt_angle_l	tmt_angle_r	mtp_angle_l	mtp_angle_r	lumbar_extension	lumbar_bending	lumbar_rotation	arm_flex_l	arm_add_l	arm_rot_l	arm_flex_r	arm_add_r	arm_rot_r	elbow_flex_l	elbow_flex_r	pro_sup_l	pro_sup_r	glut_med1_l/activation	glut_med2_l/activation	glut_med3_l/activation	glut_min1_l/activation	glut_min2_l/activation	glut_min3_l/activation	semimem_l/activation	semiten_l/activation	bifemlh_l/activation	bifemsh_l/activation	sar_l/activation	add_long_l/activation	add_brev_l/activation	add_mag1_l/activation	add_mag2_l/activation	add_mag3_l/activation	tfl_l/activation	pect_l/activation	grac_l/activation	glut_max1_l/activation	glut_max2_l/activation	glut_max3_l/activation	iliacus_l/activation	psoas_l/activation	quad_fem_l/activation	gem_l/activation	peri_l/activation	rect_fem_l/activation	vas_med_l/activation	vas_int_l/activation	vas_lat_l/activation	med_gas_l/activation	lat_gas_l/activation	soleus_l/activation	tib_post_l/activation	flex_dig_l/activation	flex_hal_l/activation	tib_ant_l/activation	per_brev_l/activation	per_long_l/activation	per_tert_l/activation	ext_dig_l/activation	ext_hal_l/activation	ercspn_l/activation	intobl_l/activation	extobl_l/activation	glut_med1_r/activation	glut_med2_r/activation	glut_med3_r/activation	glut_min1_r/activation	glut_min2_r/activation	glut_min3_r/activation	semimem_r/activation	semiten_r/activation	bifemlh_r/activation	bifemsh_r/activation	sar_r/activation	add_long_r/activation	add_brev_r/activation	add_mag1_r/activation	add_mag2_r/activation	add_mag3_r/activation	tfl_r/activation	pect_r/activation	grac_r/activation	glut_max1_r/activation	glut_max2_r/activation	glut_max3_r/activation	iliacus_r/activation	psoas_r/activation	quad_fem_r/activation	gem_r/activation	peri_r/activation	rect_fem_r/activation	vas_med_r/activation	vas_int_r/activation	vas_lat_r/activation	med_gas_r/activation	lat_gas_r/activation	soleus_r/activation	tib_post_r/activation	flex_dig_r/activation	flex_hal_r/activation	tib_ant_r/activation	per_brev_r/activation	per_long_r/activation	per_tert_r/activation	ext_dig_r/activation	ext_hal_r/activation	ercspn_r/activation	intobl_r/activation	extobl_r/activation	
          1.68344813	         -2.92983998	          2.00382361	         -4.64859262	          2.10431016	          0.92516736	          0.00139383	         27.39598501	          3.44429282	         -1.87400539	        -16.16828534	         -0.68748685	          6.60927765	         -7.64575775	         -8.72931647	          4.34618431	         -1.04792405	         -6.28661697	          6.81807815	         -0.73265179	          4.53848522	          7.26430284	         13.56386176	         -1.77360130	         -0.19654706	          2.44883580	         -6.44698273	        -13.46449111	          6.92284904	          6.28112041	        -13.45371258	         17.01005188	         16.06947518	         32.74571649	         86.51662706	         86.51662706	          0.05000178	          0.05275967	          0.05000256	          0.05935250	          0.05935221	          0.05000224	          0.20384223	          0.09210295	          0.12194832	          0.07675066	          0.05000072	          0.09927585	          0.17278119	          0.27794309	          0.20018885	          0.12859049	          0.05000034	          0.05000654	          0.13085003	          0.05935204	          0.10833204	          0.16914969	          0.05000054	          0.05000084	          0.08281587	          0.18254271	          0.11057819	          0.06296614	          0.07045787	          0.07045737	          0.07045581	          0.07281838	          0.06759343	          0.05935606	          0.05000017	          0.05000101	          0.05000063	          0.47171474	          0.28842179	          0.18417155	          0.05939548	          0.42634287	          0.08051879	          0.05935265	          0.12458380	          0.11784605	          0.25547531	          0.10488964	          0.07977017	          0.25873714	          0.19425942	          0.11783588	          0.05000375	          0.05000057	          0.05000042	          0.05000097	          0.10064121	          0.06539609	          0.05015693	          0.05000343	          0.05000596	          0.05000210	          0.31057032	          0.06202288	          0.05000518	          0.05000389	          0.05000196	          0.05000205	          0.39875518	          0.66310363	          0.05000037	          0.05000410	          0.06514453	          0.28353657	          0.05000135	          0.05000102	          0.05000132	          0.27639784	          0.36616195	          0.34091568	          0.28381464	          0.29834176	          0.35787327	          0.05000008	          0.05268961	          0.10736499	          0.05000050	          0.05000017	          0.05000068	          0.05000002	          0.05000323	          0.05000005	
          1.69467111	         -2.92583853	          2.05482741	         -4.95449242	          2.12126287	          0.92447546	          0.00123400	         26.83281719	          3.68050416	         -1.53630408	        -16.11368135	         -0.95098244	          6.38739181	         -8.32361606	        -10.48465582	          3.73356902	         -1.58821934	         -6.60124044	          7.79081784	         -0.83265794	          3.58791089	          7.31146579	         15.65877694	         -1.56513359	         -0.36946923	          2.50031800	         -7.34216549	        -13.45840500	          6.83911220	          5.97285552	        -13.46719242	         17.22929068	         15.74259516	         33.96591041	         86.51662706	         86.51662706	          0.05000006	          0.05000009	          0.05000123	          0.05000013	          0.05000013	          0.05000024	          0.17831895	          0.07758994	          0.10697226	          0.06465672	          0.05934861	          0.08363270	          0.16219622	          0.23414644	          0.16864456	          0.15052833	          0.05000049	          0.07043453	          0.11023228	          0.05000073	          0.13967869	          0.16105196	          0.05000366	          0.05000106	          0.25193176	          0.15377857	          0.09315419	          0.05304432	          0.05935581	          0.05935537	          0.05935408	          0.07045394	          0.07045414	          0.06325235	          0.05935247	          0.05000188	          0.05128641	          0.48704835	          0.31490218	          0.21288364	          0.05003626	          0.40307683	          0.06783107	          0.05000015	          0.10538423	          0.09927642	          0.24090224	          0.08836166	          0.06720040	          0.21796684	          0.16364902	          0.09926791	          0.05000177	          0.05000074	          0.05000087	          0.05000028	          0.08478302	          0.10024462	          0.05935230	          0.05935223	          0.05047308	          0.05932026	          0.26163249	          0.06078723	          0.05106688	          0.05002047	          0.05001329	          0.05003485	          0.33592143	          0.62824252	          0.05935246	          0.05000713	          0.05487945	          0.23885826	          0.07320266	          0.12666593	          0.09477864	          0.23284436	          0.30846389	          0.28719580	          0.23909279	          0.28855608	          0.37328031	          0.05000001	          0.05000033	          0.13562625	          0.05000009	          0.05000002	          0.05000013	          0.05000014	          0.05935246	          0.05935255	
          1.70589410	         -2.91838700	          2.10286570	         -5.22795367	          2.13846409	          0.92379892	          0.00107128	         26.18663152	          3.86318655	         -1.19974548	        -15.98958357	         -1.21255137	          6.16893870	         -9.04562163	        -12.34033264	          3.07765416	         -2.27843856	         -6.91903892	          8.73620912	         -0.86699381	          2.50635053	          7.44634587	         17.92745943	         -1.34363543	         -0.54995454	          2.54062909	         -8.25787092	        -13.45913548	          6.76818173	          5.59478367	        -13.48545058	         17.40319633	         15.48961057	         35.15344227	         86.51662706	         86.51662706	          0.23233339	          0.24400443	          0.27572262	          0.26087706	          0.20274433	          0.20629002	          0.15022032	          0.06536455	          0.09011614	          0.07723060	          0.05000168	          0.07045432	          0.13663818	          0.19725094	          0.14207074	          0.15682880	          0.05000133	          0.05933662	          0.09293081	          0.17809578	          0.17726733	          0.16151318	          0.05000034	          0.05000038	          0.21223361	          0.12954700	          0.14557547	          0.05000012	          0.05000288	          0.05000251	          0.05000142	          0.05935215	          0.05935234	          0.05328535	          0.05000008	          0.05000077	          0.05000054	          0.60252602	          0.37966998	          0.20975187	          0.45660156	          0.47982891	          0.16285491	          0.06621465	          0.11454559	          0.08363291	          0.23884483	          0.07443808	          0.05661133	          0.26178171	          0.13786210	          0.08362581	          0.05000203	          0.05000020	          0.05000016	          0.05000036	          0.07142386	          0.08882069	          0.05000037	          0.05000051	          0.05000091	          0.05000047	          0.26751138	          0.05121037	          0.05000071	          0.05000226	          0.05000122	          0.05000067	          0.28634608	          0.60416449	          0.05000023	          0.05000095	          0.05000043	          0.20122091	          0.06166833	          0.10670798	          0.13464622	          0.19615383	          0.25985759	          0.24194082	          0.20141772	          0.24308869	          0.31709248	          0.05000027	          0.06997364	          0.15068030	          0.05000043	          0.05752003	          0.05000065	          0.05747665	          0.05000001	          0.05000008	
          1.71711709	         -2.90927836	          2.14536633	         -5.46434460	          2.15568098	          0.92324854	          0.00088171	         25.54995652	          4.03708848	         -0.87167951	        -15.75203559	         -1.46674011	          5.96558185	         -9.76393517	        -14.33265673	          2.39228065	         -3.14603748	         -7.22218721	          9.65798710	         -0.90330335	          1.29412946	          7.71838471	         20.32907015	         -1.13111051	         -0.73559227	          2.57105737	         -9.13504619	        -13.46042488	          6.73227280	          5.18933119	        -13.50461312	         17.54312277	         15.26350042	         36.26469444	         86.51662706	         86.51662706	          0.32156230	          0.34668038	          0.37105490	          0.21980169	          0.23617289	          0.24477415	          0.12654952	          0.07972674	          0.08411040	          0.06506109	          0.05000063	          0.05935255	          0.11510748	          0.16616964	          0.15516957	          0.19234843	          0.05000047	          0.05000257	          0.07828905	          0.25096097	          0.22389930	          0.20841326	          0.05000013	          0.05000013	          0.17879091	          0.10913370	          0.12263697	          0.05000011	          0.12294406	          0.12962928	          0.09258643	          0.05000003	          0.05000008	          0.05000001	          0.05000010	          0.05000138	          0.05000110	          0.69249675	          0.37422923	          0.20541926	          0.56583258	          0.49954646	          0.19240566	          0.08530678	          0.09649607	          0.07045443	          0.20757418	          0.06270851	          0.05000012	          0.22053170	          0.11613853	          0.07044852	          0.05000287	          0.05000031	          0.05000026	          0.05000020	          0.06016947	          0.11984453	          0.08177334	          0.05000675	          0.05000649	          0.05000492	          0.23846339	          0.05943302	          0.05000133	          0.05000328	          0.05000208	          0.05000160	          0.24122505	          0.55699758	          0.05000029	          0.05000088	          0.05000023	          0.16951348	          0.12837502	          0.11799869	          0.11342985	          0.16524482	          0.21891045	          0.20381691	          0.16967930	          0.20478421	          0.26712689	          0.09513715	          0.12977868	          0.12693821	          0.05000298	          0.11615056	          0.05000055	          0.07913391	          0.05000002	          0.05000005	
